<?xml version="1.0" encoding="utf-8"?>
<!-- Generator: Adobe Illustrator 13.0.2, SVG Export Plug-In . SVG Version: 6.00 Build 14948)  -->
<!DOCTYPE svg PUBLIC "-//W3C//DTD SVG 1.0//EN" "http://www.w3.org/TR/2001/REC-SVG-20010904/DTD/svg10.dtd">
<svg version="1.0" id="Ebene_1" xmlns="http://www.w3.org/2000/svg" xmlns:xlink="http://www.w3.org/1999/xlink" x="0px" y="0px"
	 width="566px" height="566px" viewBox="0 0 566 566" enable-background="new 0 0 566 566" xml:space="preserve">
<path fill="#F9B300" d="M0,283.001C0.003,126.701,126.703,0.004,283,0l0,0C439.295,0.004,565.997,126.701,566,283.001l0,0
	C565.997,439.296,439.295,565.997,283,566l0,0C126.703,565.997,0.003,439.296,0,283.001L0,283.001z"/>
<path fill="#711D38" d="M88.635,88.633C38.884,138.39,8.128,207.081,8.125,283.001l0,0c0.003,75.916,30.759,144.61,80.51,194.364
	l0,0c49.754,49.751,118.449,80.506,194.365,80.506l0,0c75.919,0,144.61-30.759,194.364-80.506l0,0
	c49.751-49.754,80.506-118.448,80.509-194.364l0,0c-0.003-75.92-30.762-144.611-80.509-194.368l0,0
	C427.611,38.885,358.919,8.126,283,8.126l0,0C207.084,8.126,138.389,38.885,88.635,88.633L88.635,88.633z"/>
<g>
	<path fill="#FFFFFF" d="M25.462,326.926l-1.478-9.832l41.153-22.854l1.495,9.954l-9.213,4.755l2.449,16.305l10.223,1.961
		l1.459,9.71L25.462,326.926z M52.347,323.823l-1.698-11.298l-15.174,7.9l0.019,0.122L52.347,323.823z"/>
	<path fill="#FFFFFF" d="M56.355,283.437l0.187-9.692l9.507,0.183l-0.187,9.693L56.355,283.437z"/>
	<path fill="#FFFFFF" d="M53.519,249.388c5.766,1.072,8.847-3.002,9.795-8.101c0.62-3.338,0.596-8.617-3.835-9.44
		c-4.673-0.869-6.669,5.479-9.553,11.536c-2.895,6.118-6.591,12.15-14.724,10.638c-8.861-1.647-11.554-10.813-10.099-18.642
		c1.681-9.044,7.172-16.626,17.187-14.765l-1.714,9.226c-5.276-0.666-7.3,2.788-8.146,7.34c-0.564,3.035,0.057,6.792,3.698,7.468
		c3.338,0.621,4.146-1.364,8.958-11.709c1.375-3.01,5.184-12.348,15.017-10.521c7.951,1.478,12.737,8.835,10.548,20.61
		c-1.782,9.59-8.187,17.693-18.846,15.585L53.519,249.388z"/>
	<path fill="#FFFFFF" d="M68.434,209.794l3.329-9.105l8.931,3.265l-3.329,9.104L68.434,209.794z"/>
	<path fill="#FFFFFF" d="M63.104,141.334l5.687-7.851l29.105,21.082l12.606-17.403l6.602,4.782l-18.293,25.255L63.104,141.334z"/>
	<path fill="#FFFFFF" d="M95.026,101.615l6.859-6.851l31.157,31.192l-6.859,6.851L95.026,101.615z"/>
	<path fill="#FFFFFF" d="M161.267,103.15l-8.891,6.354l-37.288-27.537l8.138-5.816l26.009,19.508l0.1-0.071L139.4,64.592
		l8.138-5.816L161.267,103.15z"/>
	<path fill="#FFFFFF" d="M182.76,40.62c12.609-5.222,23.923,1.12,28.933,13.214c4.867,11.752,1.35,24.237-11.258,29.459
		c-12.608,5.221-23.923-1.12-28.791-12.872C166.634,58.326,170.152,45.841,182.76,40.62z M197.315,75.763
		c8.043-3.332,8.232-11.43,5.42-18.219c-2.954-7.132-8.813-12.726-16.856-9.394c-8.044,3.332-8.232,11.431-5.279,18.562
		C183.412,73.5,189.271,79.094,197.315,75.763z"/>
	<path fill="#FFFFFF" d="M225.476,27.546l23.501-3.589c7.813-1.193,13.587,3.484,14.594,10.077c0.784,5.128-0.705,9.29-5.229,11.98
		l0.019,0.122c4.886,0.503,6.928,4.876,7.905,9.225c0.602,2.719,1.323,7.855,3.407,10.037l-9.584,1.464
		c-1.579-2.57-2.1-6.8-3.121-10.206c-1.37-4.476-3.448-6.22-8.271-5.483l-9.583,1.464l2.601,17.03l-9.583,1.464L225.476,27.546z
		 M238.071,45.799l10.499-1.604c4.272-0.653,6.313-2.838,5.642-7.233c-0.644-4.211-3.243-5.689-7.516-5.037l-10.499,1.604
		L238.071,45.799z"/>
	<path fill="#FFFFFF" d="M285.762,21.193l9.6,0.778l15.952,30.961l0.122,0.009l2.389-29.476l9.045,0.732l-3.558,43.938l-9.662-0.783
		l-15.894-30.896l-0.124-0.01l-2.382,29.416l-9.046-0.733L285.762,21.193z"/>
	<path fill="#FFFFFF" d="M366.431,34.341c12.936,4.339,17.306,16.551,13.144,28.961c-4.045,12.059-14.895,19.165-27.832,14.825
		s-17.308-16.551-13.261-28.61C342.644,37.106,353.495,30.001,366.431,34.341z M354.335,70.4
		c8.253,2.769,13.712-3.215,16.049-10.181c2.455-7.318,1.709-15.382-6.546-18.151c-8.254-2.769-13.713,3.215-16.168,10.532
		C345.335,59.566,346.081,67.631,354.335,70.4z"/>
	<path fill="#FFFFFF" d="M446.817,98.69c2.29-3.79,1.141-9.027-2.594-12.068c-6.751-5.499-13.969-1.821-18.844,4.164
		c-4.642,5.697-6.783,13.509-0.033,19.008c4.597,3.744,9.756,2.69,13.997-1.342l7.277,5.928c-7.709,7.898-18.044,8.559-26.422,1.734
		c-10.581-8.62-10.37-21.589-2.336-31.452c8.269-10.15,20.927-12.979,31.508-4.36c7.517,6.123,10.249,15.675,4.724,24.316
		L446.817,98.69z"/>
	<path fill="#FFFFFF" d="M486.659,119.427l6.083,7.86L467.974,167.3l-6.158-7.958l5.722-8.644l-10.089-13.035l-9.878,3.274
		l-6.009-7.763L486.659,119.427z M464.709,135.245l6.99,9.031l9.389-14.294l-0.074-0.098L464.709,135.245z"/>
	<path fill="#FFFFFF" d="M512.396,157.284l4.2,8.735l-32.382,15.57l9.312,19.362l-7.345,3.532l-13.511-28.097L512.396,157.284z"/>
	<path fill="#FFFFFF" d="M525.389,237.458c4.132-1.595,6.428-6.44,5.338-11.131c-1.973-8.481-9.931-9.991-17.45-8.244
		c-7.158,1.665-13.634,6.531-11.663,15.011c1.343,5.774,6.068,8.1,11.89,7.507l2.125,9.142c-10.93,1.527-19.507-4.277-21.953-14.803
		c-3.091-13.293,5.016-23.42,17.407-26.3c12.751-2.965,24.493,2.547,27.585,15.84c2.194,9.444-1.493,18.67-11.152,22.12
		L525.389,237.458z"/>
	<path fill="#FFFFFF" d="M543.607,265.098l0.479,9.681l-44.027,2.178l-0.478-9.681L543.607,265.098z"/>
	<path fill="#FFFFFF" d="M542.888,318.011c-1.808,13.522-12.968,20.129-25.939,18.395c-12.605-1.687-21.64-10.992-19.83-24.515
		c1.808-13.522,12.967-20.127,25.572-18.441C535.664,295.184,544.697,304.488,542.888,318.011z M505.196,312.972
		c-1.154,8.627,5.755,12.853,13.037,13.825c7.647,1.023,15.425-1.237,16.578-9.866c1.154-8.628-5.755-12.852-13.403-13.875
		C514.125,302.081,506.349,304.342,505.196,312.972z"/>
</g>
<g>
	<path fill="#FFFFFF" d="M216.039,535.606l-8.411-2.472l7.902-26.892l-10.425-3.063l1.863-6.338
		c5.829,1.841,11.811,1.411,14.562-4.665l6.694,1.966L216.039,535.606z"/>
	<path fill="#FFFFFF" d="M252.068,531.254c0.276,2.942,2.253,5.612,5.265,5.901c6.33,0.607,8.786-7.531,9.492-12.301l-0.111-0.135
		c-2.721,3.149-5.992,4.264-10.171,3.862c-3.688-0.354-7.271-2.436-9.471-5.376c-2.02-2.861-2.723-6.526-2.398-9.906
		c0.844-8.789,7.596-15.151,16.569-14.289c13.031,1.25,15.442,12.957,14.397,23.837c-1.01,10.511-6.83,22.047-19.062,20.872
		c-7.438-0.714-12.55-5.609-12.808-13.262L252.068,531.254z M266.976,514.882c0.384-3.994-1.814-8.237-6.178-8.656
		c-4.18-0.401-6.96,3.362-7.332,7.235c-0.39,4.057,1.311,8.313,5.797,8.745C263.936,522.653,266.57,519.123,266.976,514.882z"/>
	<path fill="#FFFFFF" d="M314.063,542.435l-8.732,0.798l-2.555-27.914l-10.822,0.989l-0.602-6.578
		c6.099-0.435,11.503-3.037,11.822-9.702l6.948-0.635L314.063,542.435z"/>
	<path fill="#FFFFFF" d="M358.787,495.55l-17.147,4.95l1.063,9.915l0.152,0.084c1.587-2.966,3.94-4.609,7.202-5.553
		c8.188-2.364,14.649,2.648,16.895,10.421c2.466,8.545-2.692,17.169-11.108,19.406c-8.069,2.33-16.594-0.03-19.23-8.718l8.426-2.433
		c1.478,3.56,4.942,5.322,8.621,4.261c4.391-1.268,6.066-5.93,4.866-10.084c-1.25-4.33-4.914-7.001-9.424-5.698
		c-3.026,0.873-4.378,2.421-5.389,5.155l-7.595,2.193l-2.535-24.144l23.197-6.699L358.787,495.55z"/>
</g>
<path fill="#F9B300" d="M79.62,282.998C79.623,170.674,170.676,79.622,283,79.619l0,0c112.324,0.003,203.38,91.055,203.383,203.379
	l0,0C486.379,395.321,395.324,486.378,283,486.381l0,0C170.676,486.378,79.623,395.321,79.62,282.998L79.62,282.998z"/>
<path fill="#FFFFFF" d="M144.933,144.932c-35.342,35.345-57.188,84.136-57.188,138.066l0,0c0,53.931,21.847,102.72,57.188,138.069
	l0,0c35.346,35.339,84.136,57.185,138.066,57.188l0,0c53.931-0.003,102.717-21.849,138.065-57.188l0,0
	c35.343-35.35,57.188-84.139,57.191-138.069l0,0c-0.003-53.93-21.849-102.721-57.191-138.066l0,0
	C385.716,109.59,336.93,87.744,283,87.744l0,0C229.069,87.744,180.279,109.59,144.933,144.932L144.933,144.932z"/>
<path fill="#711D38" d="M429.511,283c0,60.849-37.101,113.022-89.909,135.163V396.7c41.731-20.815,70.411-63.898,70.411-113.7
	c0-12.417-1.814-24.404-5.137-35.748h-36.125h-29.149v-37.866c5.704,4.396,10.902,9.417,15.447,14.999l24.205-24.204
	c-10.982-12.752-24.451-23.3-39.652-30.892v-57.865c-12.202-4.023-24.989-6.751-38.185-8.092v53.99
	c-6.013-0.875-12.16-1.335-18.417-1.335c-0.816,0-1.623,0.046-2.437,0.062v-19.529v-16.385v-17.738
	C181.928,103.705,102.368,184.054,102.368,283c0,49.881,20.218,95.039,52.906,127.728l24.128-24.129
	c-14.304-14.304-25.655-31.555-33.085-50.76h96.062v18.731c11.316,6.447,24.305,10.253,38.185,10.659V283h20.854v91.057
	c-5.954,1.198-12.11,1.833-18.417,1.833c-26.77,0-50.878-11.34-67.83-29.459h-42.19c21.953,37.994,62.986,63.581,110.02,63.581
	c6.257,0,12.403-0.472,18.417-1.346v54.038c91.109-9.226,162.217-86.159,162.217-179.704H429.511z M242.379,293.592H136.875
	c-0.25-3.499-0.384-7.029-0.384-10.592c0-66.819,44.738-123.174,105.889-140.784v20.448c-50.216,16.947-86.39,64.402-86.39,120.336
	h34.123h30.061h22.207V293.592z M242.379,199.447v47.805H197.25C205.973,226.353,222.112,209.322,242.379,199.447z M280.564,247.252
	v-57.095c0.811-0.021,1.621-0.047,2.437-0.047c6.312,0,12.46,0.665,18.417,1.864v55.278H280.564z M339.602,283h36.288
	c0,29.992-14.229,56.646-36.288,73.63V283z"/>
</svg>
